<svg xmlns="http://www.w3.org/2000/svg" viewBox="0 0 860 560" font-family="-apple-system,Segoe UI,Roboto,Helvetica,Arial,sans-serif">
<style>
 .bg{fill:#fcfcfb}.grid{stroke:#e7e6e2;stroke-width:1}.axis{stroke:#c9c8c3;stroke-width:1}
 .sep{stroke:#e7e6e2;stroke-width:1;stroke-dasharray:2 3}
 .tick{fill:#8b8a85;font-size:11px}.axtitle{fill:#52514e;font-size:12px;font-weight:500}
 .title{fill:#0b0b0b;font-size:16px;font-weight:650}.sub{fill:#52514e;font-size:12px}
 .dot{fill:#1baf7a}.colname{fill:#52514e;font-size:11.5px;font-weight:550}
 @media (prefers-color-scheme:dark){.bg{fill:#1a1a19}.grid{stroke:#302f2d}.sep{stroke:#302f2d}
 .axis{stroke:#403f3c}.axtitle{fill:#c3c2b7}.title{fill:#fff}.sub{fill:#c3c2b7}
 .dot{fill:#199e70}.colname{fill:#c3c2b7}}
</style>
<rect class="bg" width="860" height="560"/>
<text class="title" x="64" y="20">Same test, nearly identical allocation across the 6 traced orders</text>
<text class="sub" x="64" y="36">One column per test class; each dot = that class&#39;s allocated MB in one traced order (same classes as the jitMs plot).</text>
<text class="sub" x="64" y="52">The vertical spread within a column is the run-to-run swing; darker = stacked dots. javaparser-core-testing · median CV across all 237 classes = 0.06.</text>
<line class="grid" x1="64" x2="840" y1="440.0" y2="440.0"/>
<text class="tick" x="55" y="444.0" text-anchor="end">0</text>
<line class="grid" x1="64" x2="840" y1="349.0" y2="349.0"/>
<text class="tick" x="55" y="353.0" text-anchor="end">2 GB</text>
<line class="grid" x1="64" x2="840" y1="258.0" y2="258.0"/>
<text class="tick" x="55" y="262.0" text-anchor="end">4 GB</text>
<line class="grid" x1="64" x2="840" y1="167.0" y2="167.0"/>
<text class="tick" x="55" y="171.0" text-anchor="end">6 GB</text>
<line class="grid" x1="64" x2="840" y1="76.0" y2="76.0"/>
<text class="tick" x="55" y="80.0" text-anchor="end">8 GB</text>
<line class="axis" x1="64" x2="840" y1="440" y2="440"/>
<line class="axis" x1="64" x2="64" y1="76" y2="440"/>
<text class="axtitle" x="16" y="258" text-anchor="middle" transform="rotate(-90 16 258)">allocated memory per run</text>
<text class="colname" x="128.7" y="454" text-anchor="end" transform="rotate(-28 128.7 454)">JavadocExtractorTest</text>
<circle class="dot" cx="128.7" cy="96.9" r="5.5" opacity="0.55"/>
<circle class="dot" cx="128.7" cy="132.5" r="5.5" opacity="0.55"/>
<circle class="dot" cx="128.7" cy="118.3" r="5.5" opacity="0.55"/>
<circle class="dot" cx="128.7" cy="120.6" r="5.5" opacity="0.55"/>
<circle class="dot" cx="128.7" cy="125.1" r="5.5" opacity="0.55"/>
<circle class="dot" cx="128.7" cy="128.2" r="5.5" opacity="0.55"/>
<line class="sep" x1="193.3" x2="193.3" y1="76" y2="440"/>
<text class="colname" x="258.0" y="454" text-anchor="end" transform="rotate(-28 258.0 454)">Issue2627Test</text>
<circle class="dot" cx="258.0" cy="419.1" r="5.5" opacity="0.55"/>
<circle class="dot" cx="258.0" cy="368.2" r="5.5" opacity="0.55"/>
<circle class="dot" cx="258.0" cy="351.1" r="5.5" opacity="0.55"/>
<circle class="dot" cx="258.0" cy="352.5" r="5.5" opacity="0.55"/>
<circle class="dot" cx="258.0" cy="369.2" r="5.5" opacity="0.55"/>
<circle class="dot" cx="258.0" cy="364.1" r="5.5" opacity="0.55"/>
<line class="sep" x1="322.7" x2="322.7" y1="76" y2="440"/>
<text class="colname" x="387.3" y="454" text-anchor="end" transform="rotate(-28 387.3 454)">GenericVisitorWithDefaultsTest</text>
<circle class="dot" cx="387.3" cy="427.7" r="5.5" opacity="0.55"/>
<circle class="dot" cx="387.3" cy="427.7" r="5.5" opacity="0.55"/>
<circle class="dot" cx="387.3" cy="429.0" r="5.5" opacity="0.55"/>
<circle class="dot" cx="387.3" cy="438.0" r="5.5" opacity="0.55"/>
<circle class="dot" cx="387.3" cy="438.1" r="5.5" opacity="0.55"/>
<circle class="dot" cx="387.3" cy="438.1" r="5.5" opacity="0.55"/>
<line class="sep" x1="452.0" x2="452.0" y1="76" y2="440"/>
<text class="colname" x="516.7" y="454" text-anchor="end" transform="rotate(-28 516.7 454)">ParserCollectionStrategyTest</text>
<circle class="dot" cx="516.7" cy="432.3" r="5.5" opacity="0.55"/>
<circle class="dot" cx="516.7" cy="432.4" r="5.5" opacity="0.55"/>
<circle class="dot" cx="516.7" cy="432.9" r="5.5" opacity="0.55"/>
<circle class="dot" cx="516.7" cy="432.6" r="5.5" opacity="0.55"/>
<circle class="dot" cx="516.7" cy="432.6" r="5.5" opacity="0.55"/>
<circle class="dot" cx="516.7" cy="432.8" r="5.5" opacity="0.55"/>
<line class="sep" x1="581.3" x2="581.3" y1="76" y2="440"/>
<text class="colname" x="646.0" y="454" text-anchor="end" transform="rotate(-28 646.0 454)">ObjectIdentityHashCodeVisitorTest</text>
<circle class="dot" cx="646.0" cy="422.8" r="5.5" opacity="0.55"/>
<circle class="dot" cx="646.0" cy="439.8" r="5.5" opacity="0.55"/>
<circle class="dot" cx="646.0" cy="439.8" r="5.5" opacity="0.55"/>
<circle class="dot" cx="646.0" cy="439.8" r="5.5" opacity="0.55"/>
<circle class="dot" cx="646.0" cy="439.8" r="5.5" opacity="0.55"/>
<circle class="dot" cx="646.0" cy="439.8" r="5.5" opacity="0.55"/>
<line class="sep" x1="710.7" x2="710.7" y1="76" y2="440"/>
<text class="colname" x="775.3" y="454" text-anchor="end" transform="rotate(-28 775.3 454)">SimpleNameTest</text>
<circle class="dot" cx="775.3" cy="438.5" r="5.5" opacity="0.55"/>
<circle class="dot" cx="775.3" cy="440.0" r="5.5" opacity="0.55"/>
<circle class="dot" cx="775.3" cy="439.9" r="5.5" opacity="0.55"/>
<circle class="dot" cx="775.3" cy="440.0" r="5.5" opacity="0.55"/>
<circle class="dot" cx="775.3" cy="440.0" r="5.5" opacity="0.55"/>
<circle class="dot" cx="775.3" cy="440.0" r="5.5" opacity="0.55"/>
</svg>