<svg xmlns="http://www.w3.org/2000/svg" viewBox="0 0 860 560" font-family="-apple-system,Segoe UI,Roboto,Helvetica,Arial,sans-serif">
<style>
 .bg{fill:#fcfcfb}.grid{stroke:#e7e6e2;stroke-width:1}.axis{stroke:#c9c8c3;stroke-width:1}
 .sep{stroke:#e7e6e2;stroke-width:1;stroke-dasharray:2 3}
 .tick{fill:#8b8a85;font-size:11px}.axtitle{fill:#52514e;font-size:12px;font-weight:500}
 .title{fill:#0b0b0b;font-size:16px;font-weight:650}.sub{fill:#52514e;font-size:12px}
 .dot{fill:#2a78d6}.colname{fill:#52514e;font-size:11.5px;font-weight:550}
 @media (prefers-color-scheme:dark){.bg{fill:#1a1a19}.grid{stroke:#302f2d}.sep{stroke:#302f2d}
 .axis{stroke:#403f3c}.axtitle{fill:#c3c2b7}.title{fill:#fff}.sub{fill:#c3c2b7}
 .dot{fill:#3987e5}.colname{fill:#c3c2b7}}
</style>
<rect class="bg" width="860" height="560"/>
<text class="title" x="64" y="20">Same test, wildly different jitMs across the 6 traced orders</text>
<text class="sub" x="64" y="36">One column per test class; each dot = that class&#39;s jitMs in one traced order.</text>
<text class="sub" x="64" y="52">The vertical spread within a column is the run-to-run swing; darker = stacked dots. javaparser-core-testing.</text>
<line class="grid" x1="64" x2="840" y1="440.0" y2="440.0"/>
<text class="tick" x="55" y="444.0" text-anchor="end">0</text>
<line class="grid" x1="64" x2="840" y1="379.3" y2="379.3"/>
<text class="tick" x="55" y="383.3" text-anchor="end">2.5k</text>
<line class="grid" x1="64" x2="840" y1="318.7" y2="318.7"/>
<text class="tick" x="55" y="322.7" text-anchor="end">5k</text>
<line class="grid" x1="64" x2="840" y1="258.0" y2="258.0"/>
<text class="tick" x="55" y="262.0" text-anchor="end">7.5k</text>
<line class="grid" x1="64" x2="840" y1="197.3" y2="197.3"/>
<text class="tick" x="55" y="201.3" text-anchor="end">10k</text>
<line class="grid" x1="64" x2="840" y1="136.7" y2="136.7"/>
<text class="tick" x="55" y="140.7" text-anchor="end">12.5k</text>
<line class="grid" x1="64" x2="840" y1="76.0" y2="76.0"/>
<text class="tick" x="55" y="80.0" text-anchor="end">15k</text>
<line class="axis" x1="64" x2="840" y1="440" y2="440"/>
<line class="axis" x1="64" x2="64" y1="76" y2="440"/>
<text class="axtitle" x="16" y="258" text-anchor="middle" transform="rotate(-90 16 258)">jitMs</text>
<text class="colname" x="128.7" y="454" text-anchor="end" transform="rotate(-28 128.7 454)">JavadocExtractorTest</text>
<circle class="dot" cx="128.7" cy="273.6" r="5.5" opacity="0.55"/>
<circle class="dot" cx="128.7" cy="233.7" r="5.5" opacity="0.55"/>
<circle class="dot" cx="128.7" cy="78.2" r="5.5" opacity="0.55"/>
<circle class="dot" cx="128.7" cy="154.6" r="5.5" opacity="0.55"/>
<circle class="dot" cx="128.7" cy="368.9" r="5.5" opacity="0.55"/>
<circle class="dot" cx="128.7" cy="348.6" r="5.5" opacity="0.55"/>
<line class="sep" x1="193.3" x2="193.3" y1="76" y2="440"/>
<text class="colname" x="258.0" y="454" text-anchor="end" transform="rotate(-28 258.0 454)">Issue2627Test</text>
<circle class="dot" cx="258.0" cy="364.7" r="5.5" opacity="0.55"/>
<circle class="dot" cx="258.0" cy="260.6" r="5.5" opacity="0.55"/>
<circle class="dot" cx="258.0" cy="325.0" r="5.5" opacity="0.55"/>
<circle class="dot" cx="258.0" cy="315.4" r="5.5" opacity="0.55"/>
<circle class="dot" cx="258.0" cy="341.3" r="5.5" opacity="0.55"/>
<circle class="dot" cx="258.0" cy="313.6" r="5.5" opacity="0.55"/>
<line class="sep" x1="322.7" x2="322.7" y1="76" y2="440"/>
<text class="colname" x="387.3" y="454" text-anchor="end" transform="rotate(-28 387.3 454)">GenericVisitorWithDefaultsTest</text>
<circle class="dot" cx="387.3" cy="395.5" r="5.5" opacity="0.55"/>
<circle class="dot" cx="387.3" cy="407.0" r="5.5" opacity="0.55"/>
<circle class="dot" cx="387.3" cy="416.0" r="5.5" opacity="0.55"/>
<circle class="dot" cx="387.3" cy="438.5" r="5.5" opacity="0.55"/>
<circle class="dot" cx="387.3" cy="436.4" r="5.5" opacity="0.55"/>
<circle class="dot" cx="387.3" cy="436.4" r="5.5" opacity="0.55"/>
<line class="sep" x1="452.0" x2="452.0" y1="76" y2="440"/>
<text class="colname" x="516.7" y="454" text-anchor="end" transform="rotate(-28 516.7 454)">ParserCollectionStrategyTest</text>
<circle class="dot" cx="516.7" cy="437.3" r="5.5" opacity="0.55"/>
<circle class="dot" cx="516.7" cy="400.9" r="5.5" opacity="0.55"/>
<circle class="dot" cx="516.7" cy="418.2" r="5.5" opacity="0.55"/>
<circle class="dot" cx="516.7" cy="425.9" r="5.5" opacity="0.55"/>
<circle class="dot" cx="516.7" cy="413.8" r="5.5" opacity="0.55"/>
<circle class="dot" cx="516.7" cy="433.0" r="5.5" opacity="0.55"/>
<line class="sep" x1="581.3" x2="581.3" y1="76" y2="440"/>
<text class="colname" x="646.0" y="454" text-anchor="end" transform="rotate(-28 646.0 454)">ObjectIdentityHashCodeVisitorTest</text>
<circle class="dot" cx="646.0" cy="398.5" r="5.5" opacity="0.55"/>
<circle class="dot" cx="646.0" cy="439.2" r="5.5" opacity="0.55"/>
<circle class="dot" cx="646.0" cy="439.8" r="5.5" opacity="0.55"/>
<circle class="dot" cx="646.0" cy="439.3" r="5.5" opacity="0.55"/>
<circle class="dot" cx="646.0" cy="439.1" r="5.5" opacity="0.55"/>
<circle class="dot" cx="646.0" cy="439.5" r="5.5" opacity="0.55"/>
<line class="sep" x1="710.7" x2="710.7" y1="76" y2="440"/>
<text class="colname" x="775.3" y="454" text-anchor="end" transform="rotate(-28 775.3 454)">SimpleNameTest</text>
<circle class="dot" cx="775.3" cy="414.3" r="5.5" opacity="0.55"/>
<circle class="dot" cx="775.3" cy="440.0" r="5.5" opacity="0.55"/>
<circle class="dot" cx="775.3" cy="439.4" r="5.5" opacity="0.55"/>
<circle class="dot" cx="775.3" cy="440.0" r="5.5" opacity="0.55"/>
<circle class="dot" cx="775.3" cy="440.0" r="5.5" opacity="0.55"/>
<circle class="dot" cx="775.3" cy="439.4" r="5.5" opacity="0.55"/>
</svg>